<mxfile host="Electron" modified="2023-09-18T07:48:58.311Z" agent="Mozilla/5.0 (Windows NT 10.0; Win64; x64) AppleWebKit/537.36 (KHTML, like Gecko) draw.io/21.7.5 Chrome/114.0.5735.289 Electron/25.8.1 Safari/537.36" etag="v274k-n7cMPHNC1fyUS3" version="21.7.5" type="device">
  <diagram name="Page-1" id="qJIlcv2ArcaQ8sCY3sF3">
    <mxGraphModel dx="1051" dy="557" grid="1" gridSize="10" guides="1" tooltips="1" connect="1" arrows="1" fold="1" page="1" pageScale="1" pageWidth="850" pageHeight="1100" math="0" shadow="0">
      <root>
        <mxCell id="0" />
        <mxCell id="1" parent="0" />
        <mxCell id="Fw5lrbPgnIcxgU9hdXDn-22" value="" style="edgeStyle=orthogonalEdgeStyle;rounded=0;orthogonalLoop=1;jettySize=auto;html=1;" edge="1" parent="1" source="Fw5lrbPgnIcxgU9hdXDn-3" target="Fw5lrbPgnIcxgU9hdXDn-17">
          <mxGeometry relative="1" as="geometry" />
        </mxCell>
        <mxCell id="Fw5lrbPgnIcxgU9hdXDn-3" value="jmlDis=total*dis" style="whiteSpace=wrap;html=1;fontFamily=Times New Roman;fontSize=12;" vertex="1" parent="1">
          <mxGeometry x="433.01" y="170" width="135" height="80" as="geometry" />
        </mxCell>
        <mxCell id="Fw5lrbPgnIcxgU9hdXDn-6" value="end" style="ellipse;whiteSpace=wrap;html=1;fontFamily=Times New Roman;fontSize=12;" vertex="1" parent="1">
          <mxGeometry x="450.51" y="550" width="100" height="50" as="geometry" />
        </mxCell>
        <mxCell id="Fw5lrbPgnIcxgU9hdXDn-7" value="" style="edgeStyle=orthogonalEdgeStyle;rounded=0;orthogonalLoop=1;jettySize=auto;html=1;" edge="1" parent="1" source="Fw5lrbPgnIcxgU9hdXDn-8" target="Fw5lrbPgnIcxgU9hdXDn-10">
          <mxGeometry relative="1" as="geometry" />
        </mxCell>
        <mxCell id="Fw5lrbPgnIcxgU9hdXDn-8" value="start" style="ellipse;whiteSpace=wrap;html=1;fontFamily=Times New Roman;fontSize=12;" vertex="1" parent="1">
          <mxGeometry x="160" y="80" width="100" height="50" as="geometry" />
        </mxCell>
        <mxCell id="Fw5lrbPgnIcxgU9hdXDn-9" value="" style="edgeStyle=orthogonalEdgeStyle;rounded=0;orthogonalLoop=1;jettySize=auto;html=1;fontFamily=Times New Roman;fontSize=12;" edge="1" parent="1" source="Fw5lrbPgnIcxgU9hdXDn-10" target="Fw5lrbPgnIcxgU9hdXDn-12">
          <mxGeometry relative="1" as="geometry" />
        </mxCell>
        <mxCell id="Fw5lrbPgnIcxgU9hdXDn-10" value="String merk&lt;br style=&quot;border-color: var(--border-color); font-size: 12px;&quot;&gt;int harga, jumlah, jmlHalBuku&lt;br style=&quot;border-color: var(--border-color); font-size: 12px;&quot;&gt;&lt;span style=&quot;font-size: 12px;&quot;&gt;double dis, total, bayar, jmlDis&lt;/span&gt;" style="shape=hexagon;perimeter=hexagonPerimeter2;whiteSpace=wrap;html=1;fixedSize=1;fontFamily=Times New Roman;fontSize=12;" vertex="1" parent="1">
          <mxGeometry x="125" y="170" width="170" height="90" as="geometry" />
        </mxCell>
        <mxCell id="Fw5lrbPgnIcxgU9hdXDn-29" value="" style="edgeStyle=orthogonalEdgeStyle;rounded=0;orthogonalLoop=1;jettySize=auto;html=1;" edge="1" parent="1" source="Fw5lrbPgnIcxgU9hdXDn-12" target="Fw5lrbPgnIcxgU9hdXDn-16">
          <mxGeometry relative="1" as="geometry" />
        </mxCell>
        <mxCell id="Fw5lrbPgnIcxgU9hdXDn-12" value="merk, jmlHalBuku, harga,&lt;br&gt;jumlah, dis" style="shape=parallelogram;perimeter=parallelogramPerimeter;whiteSpace=wrap;html=1;fixedSize=1;fontFamily=Times New Roman;fontSize=12;" vertex="1" parent="1">
          <mxGeometry x="125" y="300" width="170" height="80" as="geometry" />
        </mxCell>
        <mxCell id="Fw5lrbPgnIcxgU9hdXDn-13" value="B" style="ellipse;whiteSpace=wrap;html=1;aspect=fixed;align=center;" vertex="1" parent="1">
          <mxGeometry x="185" y="550" width="50" height="50" as="geometry" />
        </mxCell>
        <mxCell id="Fw5lrbPgnIcxgU9hdXDn-14" value="" style="edgeStyle=orthogonalEdgeStyle;rounded=0;orthogonalLoop=1;jettySize=auto;html=1;" edge="1" parent="1" source="Fw5lrbPgnIcxgU9hdXDn-15" target="Fw5lrbPgnIcxgU9hdXDn-3">
          <mxGeometry relative="1" as="geometry" />
        </mxCell>
        <mxCell id="Fw5lrbPgnIcxgU9hdXDn-15" value="B" style="ellipse;whiteSpace=wrap;html=1;aspect=fixed;align=center;" vertex="1" parent="1">
          <mxGeometry x="475.5" y="80" width="50" height="50" as="geometry" />
        </mxCell>
        <mxCell id="Fw5lrbPgnIcxgU9hdXDn-20" value="" style="edgeStyle=orthogonalEdgeStyle;rounded=0;orthogonalLoop=1;jettySize=auto;html=1;" edge="1" parent="1" source="Fw5lrbPgnIcxgU9hdXDn-16" target="Fw5lrbPgnIcxgU9hdXDn-13">
          <mxGeometry relative="1" as="geometry" />
        </mxCell>
        <mxCell id="Fw5lrbPgnIcxgU9hdXDn-16" value="total=harga*jumlah" style="whiteSpace=wrap;html=1;fontFamily=Times New Roman;fontSize=12;" vertex="1" parent="1">
          <mxGeometry x="142.5" y="425" width="135" height="80" as="geometry" />
        </mxCell>
        <mxCell id="Fw5lrbPgnIcxgU9hdXDn-26" value="" style="edgeStyle=orthogonalEdgeStyle;rounded=0;orthogonalLoop=1;jettySize=auto;html=1;" edge="1" parent="1" source="Fw5lrbPgnIcxgU9hdXDn-17" target="Fw5lrbPgnIcxgU9hdXDn-23">
          <mxGeometry relative="1" as="geometry" />
        </mxCell>
        <mxCell id="Fw5lrbPgnIcxgU9hdXDn-17" value="bayar = total-jmlDis" style="whiteSpace=wrap;html=1;fontFamily=Times New Roman;fontSize=12;" vertex="1" parent="1">
          <mxGeometry x="433.01" y="290" width="135" height="80" as="geometry" />
        </mxCell>
        <mxCell id="Fw5lrbPgnIcxgU9hdXDn-27" value="" style="edgeStyle=orthogonalEdgeStyle;rounded=0;orthogonalLoop=1;jettySize=auto;html=1;" edge="1" parent="1" source="Fw5lrbPgnIcxgU9hdXDn-23" target="Fw5lrbPgnIcxgU9hdXDn-6">
          <mxGeometry relative="1" as="geometry" />
        </mxCell>
        <mxCell id="Fw5lrbPgnIcxgU9hdXDn-23" value="merk, jmlHalBuku, jmlDis,&lt;br&gt;bayar" style="shape=parallelogram;perimeter=parallelogramPerimeter;whiteSpace=wrap;html=1;fixedSize=1;fontFamily=Times New Roman;fontSize=12;" vertex="1" parent="1">
          <mxGeometry x="415.88" y="425" width="169.25" height="75" as="geometry" />
        </mxCell>
      </root>
    </mxGraphModel>
  </diagram>
</mxfile>
